<svg xmlns="http://www.w3.org/2000/svg" x="0px" y="0px"
width="128" height="128"
viewBox="0 0 172 172"
style=" fill:#000000;"><g fill="none" fill-rule="nonzero" stroke="none" stroke-width="1" stroke-linecap="butt" stroke-linejoin="miter" stroke-miterlimit="10" stroke-dasharray="" stroke-dashoffset="0" font-family="none" font-weight="none" font-size="none" text-anchor="none" style="mix-blend-mode: normal"><path d="M0,172v-172h172v172z" fill="none"></path><g><path d="M144.60542,116.41892c1.81317,-0.80983 3.40417,1.51217 1.98517,2.9025c-12.62408,12.36967 -39.82158,32.81975 -70.91058,18.28933c3.34325,6.6865 9.25575,11.61 14.45517,14.90667c1.70567,1.08217 0.57333,3.70517 -1.39033,3.24292c-16.97783,-4.0205 -47.2785,-16.24325 -53.47767,-52.72158c-4.28567,6.48942 -5.92325,13.96425 -6.49658,19.77642c-0.1935,1.97083 -2.95625,2.26467 -3.50092,0.36192c-4.472,-15.56958 -8.686,-47.37883 20.32108,-71.7455c-6.15617,-0.36908 -11.825,1.08217 -16.40808,2.95625c-1.89917,0.77758 -3.43283,-1.677 -1.8705,-3.00642c12.1905,-10.38092 35.89067,-24.54942 69.00783,-16.985c-3.29667,-6.59333 -9.09092,-11.47025 -14.23658,-14.76692c-1.70567,-1.09292 -0.56617,-3.73383 1.3975,-3.23933c16.5765,4.16025 45.40083,16.52275 51.52833,52.57825c4.85542,-7.353 6.87642,-15.97092 7.72208,-21.99808c0.26158,-1.87767 2.87025,-2.12133 3.46867,-0.3225c4.80883,14.55192 11.04025,48.1815 -21.51075,73.93133c7.42825,0.44075 14.54475,-1.763 19.91617,-4.16025zM86,76.41458c-5.29258,0 -9.58542,4.29283 -9.58542,9.58542c0,5.29258 4.29283,9.58542 9.58542,9.58542c5.29258,0 9.58542,-4.29283 9.58542,-9.58542c0,-5.29258 -4.29283,-9.58542 -9.58542,-9.58542z" fill="#3498db"></path><path d="M101.953,123.05525c1.17175,0.32608 1.01767,2.03892 -0.1935,2.14283c-10.78225,0.91733 -31.59425,-0.03583 -40.60275,-19.01675c-1.02842,4.46125 -0.15767,9.09092 1.0105,12.67067c0.38342,1.17533 -1.17533,1.97442 -1.92067,0.989c-6.44642,-8.51758 -15.98167,-26.101 -4.687,-45.73767c-4.55083,1.39392 -8.24167,4.28208 -10.77867,6.80117c-0.86,0.85283 -2.279,-0.08242 -1.79525,-1.19325c3.95958,-9.09092 14.37275,-25.74983 37.56767,-25.94333c-2.76275,-2.57642 -6.00567,-4.09933 -8.89742,-5.00233c-1.20042,-0.37267 -0.9675,-2.1285 0.29025,-2.14642c9.804,-0.14692 26.51308,2.408 39.1945,18.89133c1.01408,-4.39675 0.18275,-8.95833 -0.96392,-12.52017c-0.37983,-1.1825 1.18608,-1.98158 1.92425,-0.98542c6.20275,8.428 14.9855,25.50258 3.81983,44.90992c5.15642,-1.57667 9.47433,-4.859 12.22275,-7.3745c0.85642,-0.78475 2.18225,0.11825 1.763,1.20042c-3.40417,8.74333 -13.57367,27.047 -38.9795,26.5095c3.33608,3.10675 7.55725,4.84108 11.02592,5.805zM86,76.41458c-5.29258,0 -9.58542,4.29283 -9.58542,9.58542c0,5.29258 4.29283,9.58542 9.58542,9.58542c5.29258,0 9.58542,-4.29283 9.58542,-9.58542c0,-5.29258 -4.29283,-9.58542 -9.58542,-9.58542z" fill="#5eb6f6"></path></g></g></svg>
